<?xml version="1.0" encoding="UTF-8"?>
<svg version="1.1" xmlns="http://www.w3.org/2000/svg" width="169" height="181">
<path d="M0 0 C55.77 0 111.54 0 169 0 C169 59.73 169 119.46 169 181 C113.23 181 57.46 181 0 181 C0 121.27 0 61.54 0 0 Z " fill="#FEFEFE" transform="translate(0,0)"/>
<path d="M0 0 C0.33 0.66 0.66 1.32 1 2 C1.87011719 1.96519531 1.87011719 1.96519531 2.7578125 1.9296875 C7.57424931 1.81841668 11.54558981 1.92818131 16 4 C17.33333333 5.33333333 18.66666667 6.66666667 20 8 C21.66763765 8.71529595 23.33662857 9.42771471 25.0144043 10.11889648 C28.48080043 11.65710178 31.69188922 13.61003738 34.9375 15.5625 C35.62134766 15.96146484 36.30519531 16.36042969 37.00976562 16.77148438 C38.70981315 17.78879553 40.36037451 18.88792454 42 20 C42 20.66 42 21.32 42 22 C43.65 22 45.3 22 47 22 C47 22.66 47 23.32 47 24 C47.68191406 24.25136719 48.36382812 24.50273438 49.06640625 24.76171875 C52.50069407 26.2113449 55.70390007 27.97058637 58.9375 29.8125 C59.61409668 30.19631836 60.29069336 30.58013672 60.98779297 30.97558594 C63.32924428 32.31012436 65.66533677 33.65362142 68 35 C68.92345215 35.53222168 69.8469043 36.06444336 70.79833984 36.61279297 C73.74530783 38.31717596 76.68606288 40.03181078 79.625 41.75 C80.56077881 42.29245361 81.49655762 42.83490723 82.46069336 43.39379883 C97.1457149 52.03399709 97.1457149 52.03399709 100 61 C100.92283488 66.93102868 100.19999327 72.86184046 97 78 C92.48970219 83.0864636 87.93060347 87.13367457 81 88 C69.25304273 88.30855047 59.42268538 80.54944083 49.72265625 74.78515625 C44.89044582 71.92173621 40.01011921 69.14685421 35.125 66.375 C27.22130853 61.8771878 19.3623224 57.30588955 11.53363037 52.67901611 C9.79820837 51.65348819 8.0614759 50.63017889 6.32470703 49.60693359 C-14.62188029 37.19125194 -14.62188029 37.19125194 -17 30 C-18.02224709 22.76823547 -18.22547696 15.72334459 -13.69921875 9.6796875 C-10.5119066 6.52901112 -6.84506947 4.26095845 -3 2 C-2.01 1.34 -1.02 0.68 0 0 Z " fill="#4486F1" transform="translate(46,70)"/>
<path d="M0 0 C5.66619703 3.12926069 10.51455767 8.47135201 12.9375 14.5 C13.73933987 20.71686241 13.13579496 26.03194733 9.9375 31.5 C5.07024585 37.35101437 -0.74828789 41.03919067 -7.3125 44.75 C-9.26696835 45.87362614 -11.22139462 46.99732547 -13.17578125 48.12109375 C-14.646521 48.96003174 -14.646521 48.96003174 -16.14697266 49.81591797 C-18.94949003 51.4347226 -21.71812964 53.0988948 -24.48046875 54.78515625 C-25.32770508 55.29594727 -26.17494141 55.80673828 -27.04785156 56.33300781 C-28.64099867 57.2942256 -30.22801774 58.26570106 -31.80761719 59.24902344 C-36.51345252 62.04816601 -39.58062134 63.04168761 -45.0625 62.5 C-45.0625 61.84 -45.0625 61.18 -45.0625 60.5 C-45.79082031 60.22800781 -46.51914063 59.95601562 -47.26953125 59.67578125 C-49.96179413 58.54239506 -52.27810366 57.23601027 -54.75 55.6875 C-59.0822481 53.02050042 -63.49861919 50.77783045 -68.12890625 48.67578125 C-70.0625 47.5 -70.0625 47.5 -71.0625 44.5 C-71.866875 44.520625 -72.67125 44.54125 -73.5 44.5625 C-76.0625 44.5 -76.0625 44.5 -77.0625 43.5 C-78.57719448 43.26807135 -80.10004562 43.08784762 -81.625 42.9375 C-82.45128906 42.85371094 -83.27757812 42.76992187 -84.12890625 42.68359375 C-85.08603516 42.59271484 -85.08603516 42.59271484 -86.0625 42.5 C-84.77285673 38.63107018 -83.45156206 38.28824846 -79.9453125 36.3125 C-78.8730542 35.70188721 -77.8007959 35.09127441 -76.69604492 34.4621582 C-75.52659316 33.80799246 -74.35707669 33.15394237 -73.1875 32.5 C-71.9920606 31.82280016 -70.79715838 31.14465121 -69.6027832 30.46557617 C-67.2059504 29.10385968 -64.8068248 27.74633235 -62.40576172 26.39208984 C-58.00075089 23.89911234 -53.62413416 21.35910442 -49.25 18.8125 C-46.99143753 17.50478202 -44.73187082 16.19881267 -42.47216797 14.89306641 C-40.757076 13.90154515 -39.04262566 12.90891369 -37.32861328 11.91552734 C-34.49219103 10.27303082 -31.65267279 8.6360009 -28.8125 7 C-27.94262451 6.49509033 -27.07274902 5.99018066 -26.17651367 5.4699707 C-9.48309393 -4.1191045 -9.48309393 -4.1191045 0 0 Z " fill="#E84437" transform="translate(133.0625,29.5)"/>
<path d="M0 0 C0.33 0.66 0.66 1.32 1 2 C1.87011719 1.96519531 1.87011719 1.96519531 2.7578125 1.9296875 C7.55457346 1.81887124 11.59792919 1.85015147 16 4 C18.375 6.625 18.375 6.625 20 9 C17.69 8.67 15.38 8.34 13 8 C12.67 7.01 12.34 6.02 12 5 C5.4 5.33 -1.2 5.66 -8 6 C-5.37886292 3.37886292 -3.17772443 1.80357333 0 0 Z " fill="#6A81CF" transform="translate(46,70)"/>
<path d="M0 0 C4.60268282 1.64445367 8.63830751 3.99947895 12.8125 6.5 C13.50537109 6.90347656 14.19824219 7.30695313 14.91210938 7.72265625 C16.64423445 8.75681171 18.32730564 9.87224632 20 11 C20 11.66 20 12.32 20 13 C21.65 13 23.3 13 25 13 C25 13.66 25 14.32 25 15 C26.65 15.66 28.3 16.32 30 17 C28 18 28 18 24.875 17.0625 C23.92625 16.711875 22.9775 16.36125 22 16 C22 15.34 22 14.68 22 14 C21.01 14 20.02 14 19 14 C19 13.34 19 12.68 19 12 C17.35 12 15.7 12 14 12 C14 11.34 14 10.68 14 10 C13.34 10 12.68 10 12 10 C12 9.34 12 8.68 12 8 C9.69 7.34 7.38 6.68 5 6 C5 5.34 5 4.68 5 4 C4.360625 3.896875 3.72125 3.79375 3.0625 3.6875 C2.381875 3.460625 1.70125 3.23375 1 3 C0.67 2.01 0.34 1.02 0 0 Z " fill="#637ED6" transform="translate(68,79)"/>
<path d="M0 0 C0.33 0.66 0.66 1.32 1 2 C3.31 2 5.62 2 8 2 C8 2.99 8 3.98 8 5 C8.680625 4.896875 9.36125 4.79375 10.0625 4.6875 C14.27422541 5.13555589 16.76919052 7.39300676 20 10 C18.140625 10.58203125 18.140625 10.58203125 16 11 C13.75 9.6875 13.75 9.6875 12 8 C12 7.34 12 6.68 12 6 C11.195625 6.020625 10.39125 6.04125 9.5625 6.0625 C7 6 7 6 6 5 C4.48530552 4.76807135 2.96245438 4.58784762 1.4375 4.4375 C0.61121094 4.35371094 -0.21507812 4.26992187 -1.06640625 4.18359375 C-1.70449219 4.12300781 -2.34257813 4.06242187 -3 4 C-2.67 3.01 -2.34 2.02 -2 1 C-1.34 0.67 -0.68 0.34 0 0 Z " fill="#B55871" transform="translate(50,68)"/>
<path d="M0 0 C1.32 0 2.64 0 4 0 C3.67 1.65 3.34 3.3 3 5 C6.91063224 6.47047336 6.91063224 6.47047336 11 7 C11.66 8.65 12.32 10.3 13 12 C8.72813475 10.47146065 5.00673137 8.28490519 1.1875 5.875 C0.59001953 5.50246094 -0.00746094 5.12992187 -0.62304688 4.74609375 C-2.08426251 3.8342952 -3.54244585 2.91764024 -5 2 C-4.34 1.67 -3.68 1.34 -3 1 C-2.01 1.33 -1.02 1.66 0 2 C0 1.34 0 0.68 0 0 Z " fill="#5389E7" transform="translate(40,107)"/>
<path d="M0 0 C2 2 2 2 2.125 4.625 C0.46018832 9.61943503 -2.90312179 12.774798 -7 16 C-9.765625 17.234375 -9.765625 17.234375 -12 18 C-12 17.01 -12 16.02 -12 15 C-11.01 15 -10.02 15 -9 15 C-9 14.34 -9 13.68 -9 13 C-8.01 13 -7.02 13 -6 13 C-6 12.01 -6 11.02 -6 10 C-4.7934375 9.1028125 -4.7934375 9.1028125 -3.5625 8.1875 C-0.71154069 6.18226129 -0.71154069 6.18226129 -0.1875 2.75 C-0.125625 1.8425 -0.06375 0.935 0 0 Z " fill="#DC564D" transform="translate(143,52)"/>
<path d="M0 0 C0.598125 0.226875 1.19625 0.45375 1.8125 0.6875 C1.8125 1.3475 1.8125 2.0075 1.8125 2.6875 C0.8225 2.6875 -0.1675 2.6875 -1.1875 2.6875 C-1.5175 4.0075 -1.8475 5.3275 -2.1875 6.6875 C-3.8375 7.0175 -5.4875 7.3475 -7.1875 7.6875 C-4.27205882 -0.61029412 -4.27205882 -0.61029412 0 0 Z " fill="#5B8CE8" transform="translate(38.1875,76.3125)"/>
<path d="M0 0 C3.69876091 1.37287342 6.9514476 3.06355453 10.3125 5.125 C11.19550781 5.66382812 12.07851562 6.20265625 12.98828125 6.7578125 C13.65214844 7.16773437 14.31601563 7.57765625 15 8 C13 9 13 9 11.0546875 8.44140625 C9.97574219 8.00634766 9.97574219 8.00634766 8.875 7.5625 C8.15054688 7.27503906 7.42609375 6.98757812 6.6796875 6.69140625 C6.12539062 6.46324219 5.57109375 6.23507813 5 6 C5 5.34 5 4.68 5 4 C4.360625 3.896875 3.72125 3.79375 3.0625 3.6875 C2.381875 3.460625 1.70125 3.23375 1 3 C0.67 2.01 0.34 1.02 0 0 Z " fill="#7374C0" transform="translate(68,79)"/>
<path d="M0 0 C0.99 0.99 1.98 1.98 3 3 C2.67 3.66 2.34 4.32 2 5 C2.99 5 3.98 5 5 5 C5.33 5.99 5.66 6.98 6 8 C1.69235185 6.43358249 -2.06171464 4.31663844 -6 2 C-2.25 0.875 -2.25 0.875 0 2 C0 1.34 0 0.68 0 0 Z " fill="#5B91E5" transform="translate(76,128)"/>
<path d="M0 0 C5.44208234 0.34013015 8.93668198 3.70296528 13 7 C9.60574261 7 8.29231864 6.26896132 5.375 4.625 C4.57835938 4.18414062 3.78171875 3.74328125 2.9609375 3.2890625 C1 2 1 2 0 0 Z " fill="#B7576C" transform="translate(72,80)"/>
<path d="M0 0 C0 0.66 0 1.32 0 2 C-0.99 2 -1.98 2 -3 2 C-2.67 2.99 -2.34 3.98 -2 5 C-3 6 -3 6 -4.84765625 6.09765625 C-6.8984375 6.06510417 -8.94921875 6.03255208 -11 6 C-3.28571429 0 -3.28571429 0 0 0 Z " fill="#E05852" transform="translate(62,62)"/>
<path d="M0 0 C-0.33 1.32 -0.66 2.64 -1 4 C-2.093125 4.309375 -3.18625 4.61875 -4.3125 4.9375 C-6.55407994 5.58337897 -8.7869351 6.2623117 -11 7 C-11 6.34 -11 5.68 -11 5 C-9.54462432 4.16151196 -8.08559627 3.32936066 -6.625 2.5 C-5.81289062 2.0359375 -5.00078125 1.571875 -4.1640625 1.09375 C-2 0 -2 0 0 0 Z " fill="#DD594F" transform="translate(116,31)"/>
<path d="M0 0 C0.33 0.66 0.66 1.32 1 2 C3.31 2 5.62 2 8 2 C8 2.66 8 3.32 8 4 C4.37 4 0.74 4 -3 4 C-2.67 3.01 -2.34 2.02 -2 1 C-1.34 0.67 -0.68 0.34 0 0 Z " fill="#C15863" transform="translate(50,68)"/>
<path d="M0 0 C0.721875 0.144375 1.44375 0.28875 2.1875 0.4375 C4.96513657 1.0439459 4.96513657 1.0439459 7.6875 1.25 C10 2 10 2 11.3125 4.5625 C11.6528125 5.7690625 11.6528125 5.7690625 12 7 C7.69235185 5.43358249 3.93828536 3.31663844 0 1 C0 0.67 0 0.34 0 0 Z " fill="#5C8EE1" transform="translate(41,112)"/>
<path d="M0 0 C2 2 2 2 2.1953125 4.3828125 C2.17210937 5.28773437 2.14890625 6.19265625 2.125 7.125 C2.10695312 8.03507812 2.08890625 8.94515625 2.0703125 9.8828125 C2.04710937 10.58148438 2.02390625 11.28015625 2 12 C0 8.25 0 8.25 0 6 C-0.66 6 -1.32 6 -2 6 C-1.34 4.02 -0.68 2.04 0 0 Z " fill="#E46F62" transform="translate(144,42)"/>
<path d="M0 0 C1.32 0 2.64 0 4 0 C6.25 2.5 6.25 2.5 8 5 C5.69 4.67 3.38 4.34 1 4 C0.67 2.68 0.34 1.36 0 0 Z " fill="#6C77C4" transform="translate(58,74)"/>
<path d="M0 0 C-1.05041579 2.86477034 -1.70124563 3.83913226 -4.4375 5.3125 C-7 6 -7 6 -10 5 C-8.71186658 4.16121545 -7.41936744 3.32913217 -6.125 2.5 C-5.40570313 2.0359375 -4.68640625 1.571875 -3.9453125 1.09375 C-2 0 -2 0 0 0 Z " fill="#DB5D58" transform="translate(86,48)"/>
<path d="M0 0 C1.67542976 0.28604898 3.34385343 0.61781233 5 1 C2.82575883 3.50037734 1.26954202 4.43628586 -2 5 C-1.125 1.125 -1.125 1.125 0 0 Z " fill="#E2534C" transform="translate(114,76)"/>
<path d="M0 0 C-5.17578125 3.22265625 -5.17578125 3.22265625 -7 4 C-7.99 3.67 -8.98 3.34 -10 3 C-8.68 2.67 -7.36 2.34 -6 2 C-6 1.34 -6 0.68 -6 0 C-2.25 -1.125 -2.25 -1.125 0 0 Z " fill="#5D89DA" transform="translate(138,153)"/>
<path d="M0 0 C1.9375 0.75 1.9375 0.75 4 2 C4.75 4.125 4.75 4.125 5 6 C3.68 6 2.36 6 1 6 C0.67 4.02 0.34 2.04 0 0 Z " fill="#568CE0" transform="translate(136,119)"/>
<path d="M0 0 C2.475 0.495 2.475 0.495 5 1 C5 1.66 5 2.32 5 3 C6.65 3 8.3 3 10 3 C10 3.33 10 3.66 10 4 C7.69 4 5.38 4 3 4 C3 3.34 3 2.68 3 2 C2.01 1.67 1.02 1.34 0 1 C0 0.67 0 0.34 0 0 Z " fill="#AA5E7E" transform="translate(85,88)"/>
</svg>
