<?xml version="1.0" encoding="UTF-8"?>
<svg version="1.1" xmlns="http://www.w3.org/2000/svg" width="148" height="175">
<path d="M0 0 C48.84 0 97.68 0 148 0 C148 57.75 148 115.5 148 175 C99.16 175 50.32 175 0 175 C0 117.25 0 59.5 0 0 Z " fill="#FEFEFE" transform="translate(0,0)"/>
<path d="M0 0 C0.68682861 0.35868164 1.37365723 0.71736328 2.08129883 1.08691406 C8.5110422 4.49025254 14.7704073 8.18739501 21.01171875 11.921875 C25.98817592 14.89439703 31.02338291 17.76039981 36.0625 20.625 C44.63445824 25.50856038 53.17300014 30.44213309 61.64746094 35.49316406 C63.50837299 36.59300958 65.38120132 37.66940655 67.2578125 38.7421875 C81.78368321 47.24594325 81.78368321 47.24594325 84.21484375 54.59765625 C85.50199854 62.10364878 84.48455299 68.05843572 80.5625 74.625 C76.67027186 79.33664459 72.4670708 82.09656942 66.40625 83.19921875 C56.08774482 83.54879428 49.83195619 80.25526804 41.5625 74.625 C41.5625 73.965 41.5625 73.305 41.5625 72.625 C40.69753906 72.35429688 39.83257812 72.08359375 38.94140625 71.8046875 C35.64651899 70.6543338 32.62203902 69.30497685 29.5 67.75 C28.49839844 67.25757812 27.49679688 66.76515625 26.46484375 66.2578125 C23.5625 64.625 23.5625 64.625 21.23144531 62.72558594 C18.56915873 60.63024073 15.92186549 59.01577884 12.95703125 57.3828125 C11.89033203 56.79113281 10.82363281 56.19945312 9.72460938 55.58984375 C8.61923828 54.98269531 7.51386719 54.37554687 6.375 53.75 C-27.52068329 35.04199676 -27.52068329 35.04199676 -31.6875 25.875 C-33.32440431 18.78174797 -32.99039856 13.11822839 -29.4375 6.625 C-22.35491206 -3.99888191 -11.01527133 -5.99374835 0 0 Z " fill="#129D5A" transform="translate(45.4375,32.375)"/>
<path d="M0 0 C1.2684375 1.0209375 1.2684375 1.0209375 2.5625 2.0625 C8.47777384 6.33327862 15.36814625 9.0382841 22 12 C22 12.66 22 13.32 22 14 C22.639375 14.226875 23.27875 14.45375 23.9375 14.6875 C27 16 27 16 28.9140625 17.2109375 C35.17705673 21.15093023 40.66213313 21.8634238 48 22 C44.42118176 26.17368883 40.09797055 28.29612368 35.3125 30.8125 C27.11095633 35.21810527 19.09086429 39.86936923 11.125 44.6875 C-6.37609294 55.2562904 -6.37609294 55.2562904 -15 60 C-16.06347656 60.59683594 -17.12695312 61.19367188 -18.22265625 61.80859375 C-24.12060029 64.97316596 -28.30214192 67.18832966 -35 66 C-42.59488149 63.16057622 -46.83389349 59.94540828 -50.75 52.8125 C-52.79060762 47.62642539 -52.90784084 42.17458809 -51.37890625 36.828125 C-46.8388365 26.4162317 -36.5072034 21.87567804 -27.046875 16.77734375 C-20.68902514 13.32827303 -14.53287885 9.54905403 -8.37402344 5.7590332 C-7.5699707 5.26878662 -6.76591797 4.77854004 -5.9375 4.2734375 C-5.22464844 3.83435059 -4.51179688 3.39526367 -3.77734375 2.94287109 C-2 2 -2 2 0 2 C0 1.34 0 0.68 0 0 Z " fill="#F8BD06" transform="translate(65,93)"/>
<path d="M0 0 C3.8088684 0.67215325 7.41388869 1.53295446 11 3 C11.33 3.99 11.66 4.98 12 6 C14.97 6.33 17.94 6.66 21 7 C21.33 8.65 21.66 10.3 22 12 C22.7734375 12.1546875 22.7734375 12.1546875 23.5625 12.3125 C26.86026435 13.24263866 29.86633332 14.61395512 33 16 C33 16.66 33 17.32 33 18 C38.28 18 43.56 18 49 18 C48.505 19.485 48.505 19.485 48 21 C36.14308393 22.29741331 29.58815819 19.5281077 20 13 C20 12.34 20 11.68 20 11 C19.13890625 10.73058594 18.2778125 10.46117188 17.390625 10.18359375 C14.03448137 9.0120367 10.9359549 7.63546517 7.75 6.0625 C6.71359375 5.55847656 5.6771875 5.05445312 4.609375 4.53515625 C2 3 2 3 0 0 Z " fill="#29993D" transform="translate(67,94)"/>
<path d="M0 0 C6.27 2.97 12.54 5.94 19 9 C19 9.66 19 10.32 19 11 C19.721875 11.2475 20.44375 11.495 21.1875 11.75 C24.24713266 13.10983674 26.4673738 14.82917754 29 17 C25.63999649 16.35561576 23.25661998 15.07095855 20.375 13.25 C16.08813552 10.60949411 11.72309135 8.31266457 7.20703125 6.09375 C4.70473301 4.853673 2.29059519 3.60341663 0 2 C0 1.34 0 0.68 0 0 Z " fill="#C4C32C" transform="translate(68,96)"/>
<path d="M0 0 C1.32 0 2.64 0 4 0 C4 0.66 4 1.32 4 2 C9.28 2 14.56 2 20 2 C19.67 2.99 19.34 3.98 19 5 C16.70839681 5.02692484 14.41670454 5.04636124 12.125 5.0625 C10.84882812 5.07410156 9.57265625 5.08570312 8.2578125 5.09765625 C5 5 5 5 3 4 C3 3.01 3 2.02 3 1 C2.01 0.67 1.02 0.34 0 0 Z " fill="#33993E" transform="translate(96,110)"/>
<path d="M0 0 C0 0.66 0 1.32 0 2 C-0.66 2 -1.32 2 -2 2 C-2.2475 2.61875 -2.495 3.2375 -2.75 3.875 C-4.30230693 6.51392178 -5.10986942 7.01127112 -8 8 C-10.66656713 8.44442786 -13.30655282 8.73065528 -16 9 C-11.97806144 5.49702126 -5.60566856 0 0 0 Z " fill="#F4C32D" transform="translate(62,97)"/>
<path d="M0 0 C3.21042925 2.79167761 3.85617741 5.07010147 4.16796875 9.25390625 C4.17441406 10.01574219 4.18085938 10.77757813 4.1875 11.5625 C4.20167969 12.32691406 4.21585938 13.09132813 4.23046875 13.87890625 C4 16 4 16 2 19 C2 14.38 2 9.76 2 5 C0.35 5 -1.3 5 -3 5 C-2.01 3.35 -1.02 1.7 0 0 Z " fill="#329F6C" transform="translate(126,82)"/>
<path d="M0 0 C1.5 1.375 1.5 1.375 3 3 C3 3.66 3 4.32 3 5 C3.66 5 4.32 5 5 5 C5.33 6.65 5.66 8.3 6 10 C7.32 10 8.64 10 10 10 C10.33 11.32 10.66 12.64 11 14 C5.73242639 12.39046362 3.48450576 9.52365978 0.75 4.875 C0 3 0 3 0 0 Z " fill="#EDC328" transform="translate(14,142)"/>
<path d="M0 0 C1.31625194 2.63250388 0.74813658 3.80179056 0.0625 6.625 C-0.13214844 7.44226563 -0.32679687 8.25953125 -0.52734375 9.1015625 C-0.76130859 10.04128906 -0.76130859 10.04128906 -1 11 C-1.99 10.67 -2.98 10.34 -4 10 C-4 12.97 -4 15.94 -4 19 C-4.33 19 -4.66 19 -5 19 C-5.51907013 11.96371602 -4.88567332 6.97675857 -1 1 C-0.67 0.67 -0.34 0.34 0 0 Z " fill="#EEC12A" transform="translate(18,123)"/>
<path d="M0 0 C-0.8125 1.9375 -0.8125 1.9375 -2 4 C-2.99 4.33 -3.98 4.66 -5 5 C-5.66 4.67 -6.32 4.34 -7 4 C-7.226875 4.639375 -7.45375 5.27875 -7.6875 5.9375 C-9 8 -9 8 -11.625 8.75 C-12.40875 8.8325 -13.1925 8.915 -14 9 C-10.44113418 5.11760093 -5.62095916 0 0 0 Z " fill="#EDC52A" transform="translate(33,114)"/>
<path d="M0 0 C2.31 0 4.62 0 7 0 C7 0.66 7 1.32 7 2 C7.721875 1.67 8.44375 1.34 9.1875 1 C12.01697427 -0.00603529 14.02895466 -0.16977402 17 0 C14.30926173 2.69073827 12.94637525 3.00425593 9.0625 3.3125 C5.69325673 3.19284463 3.0438181 2.52190905 0 1 C0 0.67 0 0.34 0 0 Z " fill="#F1C63F" transform="translate(25,156)"/>
<path d="M0 0 C0.66 0.33 1.32 0.66 2 1 C1.67 1.99 1.34 2.98 1 4 C0.01 4.33 -0.98 4.66 -2 5 C-2.66 5.66 -3.32 6.32 -4 7 C-6.32275177 7.40047444 -8.65739357 7.7397104 -11 8 C-8.83385197 5.69125289 -6.60793392 3.94709819 -3.9375 2.25 C-2.89916016 1.57710938 -2.89916016 1.57710938 -1.83984375 0.890625 C-1.23269531 0.59671875 -0.62554687 0.3028125 0 0 Z " fill="#EFC430" transform="translate(44,106)"/>
<path d="M0 0 C-1 3 -1 3 -2.84765625 4.16796875 C-3.57855469 4.50441406 -4.30945313 4.84085937 -5.0625 5.1875 C-5.79597656 5.53167969 -6.52945313 5.87585938 -7.28515625 6.23046875 C-8.13400391 6.61138672 -8.13400391 6.61138672 -9 7 C-7.74734727 1.38625998 -5.9420808 -0.48179034 0 0 Z " fill="#2C9E66" transform="translate(125,107)"/>
<path d="M0 0 C3.3 0 6.6 0 10 0 C7.63707344 2.52588702 6.33537489 3.88820837 3 5 C2.67 4.01 2.34 3.02 2 2 C1.34 1.34 0.68 0.68 0 0 Z " fill="#C1C839" transform="translate(103,115)"/>
<path d="M0 0 C3.06393013 -0.25532751 4.63233212 -0.21861333 7.3125 1.375 C7.869375 1.91125 8.42625 2.4475 9 3 C9 3.66 9 4.32 9 5 C9.99 5 10.98 5 12 5 C12 5.66 12 6.32 12 7 C7.69235185 5.43358249 3.93828536 3.31663844 0 1 C0 0.67 0 0.34 0 0 Z " fill="#52A036" transform="translate(87,106)"/>
<path d="M0 0 C3.96 1.98 7.92 3.96 12 6 C8 7 8 7 5 6 C5 5.34 5 4.68 5 4 C2.525 3.01 2.525 3.01 0 2 C0 1.34 0 0.68 0 0 Z " fill="#2E9C67" transform="translate(97,63)"/>
<path d="M0 0 C3.40312738 1.05875074 6.01353231 2.00902154 9 4 C8.67 4.99 8.34 5.98 8 7 C8 6.34 8 5.68 8 5 C6.02 5 4.04 5 2 5 C1.34 3.35 0.68 1.7 0 0 Z " fill="#E7C218" transform="translate(97,113)"/>
<path d="M0 0 C3.94120709 0.56302958 6.7508723 1.6791945 10 4 C10 4.66 10 5.32 10 6 C5.56909529 4.79157144 3.01887244 3.48331435 0 0 Z " fill="#559C33" transform="translate(67,94)"/>
<path d="M0 0 C2.97 0 5.94 0 9 0 C6.14693203 2.32472205 3.45925163 3.7508258 0 5 C0 3.35 0 1.7 0 0 Z " fill="#F4C02C" transform="translate(57,143)"/>
<path d="M0 0 C0.66 0.66 1.32 1.32 2 2 C2.99 2.66 3.98 3.32 5 4 C5 4.66 5 5.32 5 6 C1.54074837 4.7508258 -1.14693203 3.32472205 -4 1 C-2.125 0.375 -2.125 0.375 0 0 Z " fill="#319F6C" transform="translate(52,82)"/>
<path d="M0 0 C0.33 1.32 0.66 2.64 1 4 C0.01 4.66 -0.98 5.32 -2 6 C-2.33 6.99 -2.66 7.98 -3 9 C-3.66 9 -4.32 9 -5 9 C-3.7508258 5.54074837 -2.32472205 2.85306797 0 0 Z " fill="#33A16E" transform="translate(19,35)"/>
</svg>
